<svg width="1440" height="868" viewBox="0 0 1440 868" fill="none" xmlns="http://www.w3.org/2000/svg">
<rect x="1114" y="92" width="227" height="111" rx="13" fill="white" fill-opacity="0.2"/>
<rect x="1113" y="91" width="229" height="113" rx="14" stroke="black" stroke-opacity="0.14" stroke-width="2" stroke-linejoin="round"/>
<rect x="58" y="296" width="227" height="176" rx="13" fill="white" fill-opacity="0.2"/>
<rect x="57" y="295" width="229" height="178" rx="14" stroke="black" stroke-opacity="0.14" stroke-width="2" stroke-linejoin="round"/>
<rect x="713" y="789" width="255" height="77" rx="13" fill="white" fill-opacity="0.2"/>
<rect x="712" y="788" width="257" height="79" rx="14" stroke="black" stroke-opacity="0.14" stroke-width="2" stroke-linejoin="round"/>
<rect x="218" y="160" width="137" height="43" rx="13" fill="white" fill-opacity="0.2"/>
<rect x="217" y="159" width="139" height="45" rx="14" stroke="black" stroke-opacity="0.14" stroke-width="2" stroke-linejoin="round"/>
<rect x="827" y="524" width="187" height="53" rx="13" fill="white" fill-opacity="0.2"/>
<rect x="826" y="523" width="189" height="55" rx="14" stroke="black" stroke-opacity="0.14" stroke-width="2" stroke-linejoin="round"/>
<rect x="406" y="389" width="319" height="53" rx="13" fill="white" fill-opacity="0.2"/>
<rect x="405" y="388" width="321" height="55" rx="14" stroke="black" stroke-opacity="0.14" stroke-width="2" stroke-linejoin="round"/>
<path d="M213.5 181.631L203.522 175.82L203.478 187.367L213.5 181.631ZM110 166.131L109.558 167.028L110 166.131ZM204.504 180.597C172.899 180.334 136.841 178.253 110.442 165.234L109.558 167.028C136.418 180.274 172.913 182.334 204.487 182.597L204.504 180.597ZM110.442 165.234C92.29 156.282 80.1497 148.834 64.7444 143.867C49.2845 138.882 30.5358 136.38 -1.0238 137.131L-0.976197 139.131C30.4642 138.382 48.9655 140.88 64.1306 145.77C79.3503 150.678 91.21 157.98 109.558 167.028L110.442 165.234Z" fill="black" fill-opacity="0.14"/>
<g filter="url(#filter0_f_29_147)">
<rect x="107" y="653" width="303" height="149" rx="13" fill="white" fill-opacity="0.1"/>
<rect x="106.5" y="652.5" width="304" height="150" rx="13.5" stroke="black" stroke-opacity="0.15" stroke-linejoin="round"/>
</g>
<g filter="url(#filter1_f_29_147)">
<rect x="1162" y="399" width="399" height="208" rx="13" fill="white" fill-opacity="0.1"/>
<rect x="1161.5" y="398.5" width="400" height="209" rx="13.5" stroke="black" stroke-opacity="0.15" stroke-linejoin="round"/>
</g>
<g filter="url(#filter2_f_29_147)">
<path d="M106 736L101.023 733.074L100.978 738.848L106 736ZM101.505 735.465C58.4883 734.785 28.2301 724.249 2.98605 703.914C-22.2816 683.559 -42.5643 653.357 -65.5663 613.251L-66.4337 613.749C-43.4286 653.86 -23.0678 684.21 2.35871 704.692C27.8089 725.194 58.2955 735.782 101.489 736.465L101.505 735.465Z" fill="black" fill-opacity="0.15"/>
</g>
<g filter="url(#filter3_f_29_147)">
<rect x="1287" y="746" width="227" height="111" rx="13" fill="white" fill-opacity="0.1"/>
<rect x="1286" y="745" width="229" height="113" rx="14" stroke="black" stroke-opacity="0.15" stroke-width="2" stroke-linejoin="round"/>
</g>
<rect x="725" y="2" width="204" height="43" rx="13" fill="white" fill-opacity="0.2"/>
<rect x="724" y="1" width="206" height="45" rx="14" stroke="black" stroke-opacity="0.14" stroke-width="2" stroke-linejoin="round"/>
<path d="M931 24L940.778 30.1427L941.209 18.6038L931 24ZM1022 81L1022.75 80.3346L1022 81ZM1111.5 118.5L1101.71 112.377L1101.3 123.917L1111.5 118.5ZM939.921 25.3331C989.816 29.15 1006.12 64.6891 1021.25 81.6654L1022.75 80.3346C1008.03 63.8255 991.011 27.2355 940.073 23.3389L939.921 25.3331ZM1021.25 81.6654C1040.19 102.907 1070.46 116.925 1102.43 119.18L1102.57 117.185C1071.05 114.962 1041.29 101.138 1022.75 80.3346L1021.25 81.6654Z" fill="black" fill-opacity="0.14"/>
<path d="M177 294.5L183.796 285.165L172.314 283.947L177 294.5ZM274.5 203.5C274.5 215.997 267.342 223.35 257.999 228.76C253.314 231.472 248.122 233.668 243.055 235.763C238.017 237.847 233.075 239.842 229.01 242.128L229.99 243.872C233.925 241.658 238.733 239.715 243.82 237.612C248.878 235.52 254.186 233.278 259.001 230.49C268.658 224.9 276.5 217.003 276.5 203.5H274.5ZM229.01 242.128C225.439 244.137 220.832 246.146 215.744 248.479C210.683 250.8 205.194 253.422 199.966 256.623C189.515 263.021 179.978 271.813 176.974 285.329L178.926 285.763C181.76 273.013 190.763 264.602 201.01 258.329C206.131 255.194 211.529 252.613 216.578 250.297C221.601 247.994 226.325 245.933 229.99 243.872L229.01 242.128Z" fill="black" fill-opacity="0.14"/>
<path d="M1344.5 152.5L1354.64 158.025L1354.35 146.482L1344.5 152.5ZM1353.55 153.277C1376.49 152.111 1392.06 146.471 1403.97 138.615C1415.86 130.778 1424.03 120.769 1432.19 111.045C1440.37 101.296 1448.54 91.82 1460.47 84.7526C1472.39 77.697 1488.13 73 1511.5 73V71C1487.85 71 1471.74 75.7588 1459.45 83.0317C1447.19 90.2927 1438.83 100.018 1430.66 109.759C1422.46 119.526 1414.47 129.297 1402.87 136.946C1391.3 144.577 1376.09 150.129 1353.45 151.28L1353.55 153.277Z" fill="black" fill-opacity="0.14"/>
<defs>
<filter id="filter0_f_29_147" x="102" y="648" width="313" height="159" filterUnits="userSpaceOnUse" color-interpolation-filters="sRGB">
<feFlood flood-opacity="0" result="BackgroundImageFix"/>
<feBlend mode="normal" in="SourceGraphic" in2="BackgroundImageFix" result="shape"/>
<feGaussianBlur stdDeviation="2" result="effect1_foregroundBlur_29_147"/>
</filter>
<filter id="filter1_f_29_147" x="1157" y="394" width="409" height="218" filterUnits="userSpaceOnUse" color-interpolation-filters="sRGB">
<feFlood flood-opacity="0" result="BackgroundImageFix"/>
<feBlend mode="normal" in="SourceGraphic" in2="BackgroundImageFix" result="shape"/>
<feGaussianBlur stdDeviation="2" result="effect1_foregroundBlur_29_147"/>
</filter>
<filter id="filter2_f_29_147" x="-70.4337" y="609.251" width="180.434" height="133.596" filterUnits="userSpaceOnUse" color-interpolation-filters="sRGB">
<feFlood flood-opacity="0" result="BackgroundImageFix"/>
<feBlend mode="normal" in="SourceGraphic" in2="BackgroundImageFix" result="shape"/>
<feGaussianBlur stdDeviation="2" result="effect1_foregroundBlur_29_147"/>
</filter>
<filter id="filter3_f_29_147" x="1281" y="740" width="239" height="123" filterUnits="userSpaceOnUse" color-interpolation-filters="sRGB">
<feFlood flood-opacity="0" result="BackgroundImageFix"/>
<feBlend mode="normal" in="SourceGraphic" in2="BackgroundImageFix" result="shape"/>
<feGaussianBlur stdDeviation="2" result="effect1_foregroundBlur_29_147"/>
</filter>
</defs>
</svg>
